<?xml version="1.0" standalone="no"?>
<!DOCTYPE svg PUBLIC "-//W3C//DTD SVG 20010904//EN"
 "http://www.w3.org/TR/2001/REC-SVG-20010904/DTD/svg10.dtd">
<svg version="1.0" xmlns="http://www.w3.org/2000/svg"
 width="535.000000pt" height="535.000000pt" viewBox="0 0 535.000000 535.000000"
 preserveAspectRatio="xMidYMid meet">
<metadata>
Created by potrace 1.14, written by Peter Selinger 2001-2017
</metadata>
<g transform="translate(0.000000,535.000000) scale(0.100000,-0.100000)"
fill="#000000" stroke="none">
<path d="M37 5342 c-7 -14 0 -2999 7 -3047 4 -27 15 -81 23 -120 8 -38 17 -81
19 -95 12 -62 79 -275 121 -380 170 -432 441 -805 786 -1082 106 -84 240 -178
256 -178 5 0 11 -4 13 -8 2 -5 44 -31 93 -58 283 -157 571 -260 950 -340 l130
-27 1440 -1 1440 -1 1 99 c1 84 -8 162 -30 265 -23 106 -101 288 -167 387 -74
111 -191 235 -291 306 -63 44 -69 55 -37 60 49 7 262 388 354 633 40 107 96
289 109 355 3 14 11 59 20 100 33 170 44 299 40 490 -1 85 -5 169 -7 185 -3
17 -9 55 -12 85 -3 30 -13 93 -22 140 -8 47 -17 96 -20 110 -23 129 -121 444
-177 565 -151 329 -296 549 -510 772 -258 270 -600 487 -961 610 -102 35 -292
87 -355 97 -241 40 -334 49 -525 49 -508 2 -1031 -138 -1469 -392 -49 -28 -91
-51 -93 -51 -2 0 -22 -14 -45 -30 l-42 -31 -40 48 c-191 230 -432 382 -715
448 -92 22 -98 23 -171 30 -36 4 -75 8 -87 10 -13 2 -24 1 -26 -3z m2803
-1337 c164 -20 312 -65 465 -140 147 -73 160 -81 263 -163 151 -120 263 -256
344 -417 38 -74 102 -245 93 -245 -3 0 0 -11 5 -25 5 -14 12 -46 16 -72 3 -26
8 -59 10 -73 22 -157 -18 -413 -95 -605 -141 -350 -485 -738 -710 -801 -92
-25 -194 -61 -257 -90 -58 -26 -63 -27 -254 -26 -108 0 -214 3 -235 6 -22 4
-56 9 -75 12 -59 10 -199 53 -274 85 -384 163 -644 476 -762 914 -22 84 -24
106 -24 357 l0 266 30 85 c186 526 625 887 1135 933 39 3 71 7 73 9 5 4 198
-3 252 -10z"/>
</g>
</svg>
